<mxfile host="app.diagrams.net" agent="Mozilla/5.0 (Windows NT 10.0; Win64; x64) AppleWebKit/537.36 (KHTML, like Gecko) Chrome/140.0.0.0 Safari/537.36" version="28.2.8">
  <diagram name="第 1 页" id="dkStpAmjWy0_y4IJhdzk">
    <mxGraphModel dx="1426" dy="743" grid="1" gridSize="10" guides="1" tooltips="1" connect="1" arrows="1" fold="1" page="1" pageScale="1" pageWidth="827" pageHeight="1169" math="0" shadow="0">
      <root>
        <mxCell id="0" />
        <mxCell id="1" parent="0" />
        <mxCell id="CTbkfmKo36gmOUzIgx41-1" value="&lt;font style=&quot;font-size: 12px;&quot;&gt;«Module»&lt;/font&gt;&lt;br style=&quot;font-size: 14px;&quot;&gt;&lt;b&gt;调度&lt;/b&gt;" style="html=1;dropTarget=0;fontSize=14;fillColor=#ffcccc;strokeColor=#36393d;gradientColor=#FFFFFF;gradientDirection=east;verticalAlign=top;" vertex="1" parent="1">
          <mxGeometry x="850" y="370" width="490" height="410" as="geometry" />
        </mxCell>
        <mxCell id="CTbkfmKo36gmOUzIgx41-2" value="" style="shape=module;jettyWidth=8;jettyHeight=4;fontSize=14;fillColor=#ffcccc;strokeColor=#36393d;gradientColor=#FFFFFF;gradientDirection=east;" vertex="1" parent="CTbkfmKo36gmOUzIgx41-1">
          <mxGeometry x="1" width="20" height="20" relative="1" as="geometry">
            <mxPoint x="-27" y="7" as="offset" />
          </mxGeometry>
        </mxCell>
        <mxCell id="CTbkfmKo36gmOUzIgx41-3" value="&lt;font style=&quot;font-size: 12px;&quot;&gt;«SubModule»&lt;/font&gt;&lt;br style=&quot;font-size: 14px;&quot;&gt;&lt;b&gt;调度框架&lt;/b&gt;" style="html=1;dropTarget=0;fontSize=14;fillColor=#ffcccc;strokeColor=#36393d;gradientColor=#FFFFFF;gradientDirection=east;verticalAlign=top;" vertex="1" parent="1">
          <mxGeometry x="940" y="420" width="290" height="110" as="geometry" />
        </mxCell>
        <mxCell id="CTbkfmKo36gmOUzIgx41-4" value="" style="shape=module;jettyWidth=8;jettyHeight=4;fontSize=14;fillColor=#ffcccc;strokeColor=#36393d;gradientColor=#FFFFFF;gradientDirection=east;" vertex="1" parent="CTbkfmKo36gmOUzIgx41-3">
          <mxGeometry x="1" width="20" height="20" relative="1" as="geometry">
            <mxPoint x="-27" y="7" as="offset" />
          </mxGeometry>
        </mxCell>
        <mxCell id="CTbkfmKo36gmOUzIgx41-5" value="&lt;font style=&quot;font-size: 12px;&quot;&gt;«SubModule»&lt;/font&gt;&lt;br style=&quot;font-size: 14px;&quot;&gt;&lt;b&gt;模块调度&lt;/b&gt;" style="html=1;dropTarget=0;fontSize=14;fillColor=#ffcccc;strokeColor=#36393d;gradientColor=#FFFFFF;gradientDirection=east;verticalAlign=top;" vertex="1" parent="1">
          <mxGeometry x="1019.5" y="570" width="310" height="189.75" as="geometry" />
        </mxCell>
        <mxCell id="CTbkfmKo36gmOUzIgx41-6" value="" style="shape=module;jettyWidth=8;jettyHeight=4;fontSize=14;fillColor=#ffcccc;strokeColor=#36393d;gradientColor=#FFFFFF;gradientDirection=east;" vertex="1" parent="CTbkfmKo36gmOUzIgx41-5">
          <mxGeometry x="1" width="20" height="20" relative="1" as="geometry">
            <mxPoint x="-27" y="7" as="offset" />
          </mxGeometry>
        </mxCell>
        <mxCell id="CTbkfmKo36gmOUzIgx41-7" value="&lt;font style=&quot;font-size: 12px;&quot;&gt;«SubModule»&lt;/font&gt;&lt;br style=&quot;font-size: 14px;&quot;&gt;&lt;b&gt;位置分配&lt;/b&gt;" style="html=1;dropTarget=0;fontSize=14;fillColor=#ffcccc;strokeColor=#36393d;gradientColor=#FFFFFF;gradientDirection=east;verticalAlign=top;" vertex="1" parent="1">
          <mxGeometry x="1038" y="620" width="130" height="130.25" as="geometry" />
        </mxCell>
        <mxCell id="CTbkfmKo36gmOUzIgx41-8" value="" style="shape=module;jettyWidth=8;jettyHeight=4;fontSize=14;fillColor=#ffcccc;strokeColor=#36393d;gradientColor=#FFFFFF;gradientDirection=east;" vertex="1" parent="CTbkfmKo36gmOUzIgx41-7">
          <mxGeometry x="1" width="20" height="20" relative="1" as="geometry">
            <mxPoint x="-27" y="7" as="offset" />
          </mxGeometry>
        </mxCell>
        <mxCell id="CTbkfmKo36gmOUzIgx41-9" value="&lt;font style=&quot;font-size: 12px;&quot;&gt;«SubModule»&lt;/font&gt;&lt;br style=&quot;font-size: 14px;&quot;&gt;&lt;b&gt;调度图&lt;/b&gt;" style="html=1;dropTarget=0;fontSize=14;fillColor=#ffcccc;strokeColor=#36393d;gradientColor=#FFFFFF;gradientDirection=east;verticalAlign=top;" vertex="1" parent="1">
          <mxGeometry x="867" y="570.25" width="130" height="189.5" as="geometry" />
        </mxCell>
        <mxCell id="CTbkfmKo36gmOUzIgx41-10" value="" style="shape=module;jettyWidth=8;jettyHeight=4;fontSize=14;fillColor=#ffcccc;strokeColor=#36393d;gradientColor=#FFFFFF;gradientDirection=east;" vertex="1" parent="CTbkfmKo36gmOUzIgx41-9">
          <mxGeometry x="1" width="20" height="20" relative="1" as="geometry">
            <mxPoint x="-27" y="7" as="offset" />
          </mxGeometry>
        </mxCell>
        <mxCell id="CTbkfmKo36gmOUzIgx41-11" style="edgeStyle=none;rounded=1;orthogonalLoop=1;jettySize=auto;html=1;dashed=1;strokeColor=#000000;fontSize=14;fontColor=#000000;endArrow=open;endFill=0;elbow=vertical;" edge="1" parent="1" source="CTbkfmKo36gmOUzIgx41-12" target="CTbkfmKo36gmOUzIgx41-17">
          <mxGeometry relative="1" as="geometry" />
        </mxCell>
        <mxCell id="CTbkfmKo36gmOUzIgx41-12" value="&lt;font style=&quot;font-size: 12px;&quot;&gt;«FuncUnit»&lt;/font&gt;&lt;br style=&quot;font-size: 14px;&quot;&gt;&lt;b&gt;调度排序&lt;/b&gt;" style="html=1;dropTarget=0;fontSize=14;fillColor=#E6D0DE;strokeColor=#36393d;gradientColor=#FFFFFF;gradientDirection=east;" vertex="1" parent="1">
          <mxGeometry x="877" y="700.25" width="110" height="50" as="geometry" />
        </mxCell>
        <mxCell id="CTbkfmKo36gmOUzIgx41-13" value="" style="shape=module;jettyWidth=8;jettyHeight=4;fontSize=14;fillColor=#ffcccc;strokeColor=#36393d;gradientColor=#FFFFFF;gradientDirection=east;" vertex="1" parent="CTbkfmKo36gmOUzIgx41-12">
          <mxGeometry x="1" width="20" height="20" relative="1" as="geometry">
            <mxPoint x="-27" y="7" as="offset" />
          </mxGeometry>
        </mxCell>
        <mxCell id="CTbkfmKo36gmOUzIgx41-14" style="edgeStyle=none;rounded=1;orthogonalLoop=1;jettySize=auto;html=1;dashed=1;strokeColor=#000000;fontSize=14;fontColor=#000000;endArrow=open;endFill=0;elbow=vertical;" edge="1" parent="1" source="CTbkfmKo36gmOUzIgx41-15" target="CTbkfmKo36gmOUzIgx41-7">
          <mxGeometry relative="1" as="geometry">
            <mxPoint x="1204" y="698.6486928104578" as="sourcePoint" />
          </mxGeometry>
        </mxCell>
        <mxCell id="CTbkfmKo36gmOUzIgx41-15" value="&lt;font style=&quot;font-size: 12px;&quot;&gt;«SubModule»&lt;/font&gt;&lt;br style=&quot;font-size: 14px;&quot;&gt;&lt;b&gt;路由布线&lt;/b&gt;" style="html=1;dropTarget=0;fontSize=14;fillColor=#ffcccc;strokeColor=#36393d;gradientColor=#FFFFFF;gradientDirection=east;verticalAlign=top;" vertex="1" parent="1">
          <mxGeometry x="1201" y="655.25" width="110" height="50" as="geometry" />
        </mxCell>
        <mxCell id="CTbkfmKo36gmOUzIgx41-16" value="" style="shape=module;jettyWidth=8;jettyHeight=4;fontSize=14;fillColor=#ffcccc;strokeColor=#36393d;gradientColor=#FFFFFF;gradientDirection=east;" vertex="1" parent="CTbkfmKo36gmOUzIgx41-15">
          <mxGeometry x="1" width="20" height="20" relative="1" as="geometry">
            <mxPoint x="-27" y="7" as="offset" />
          </mxGeometry>
        </mxCell>
        <mxCell id="CTbkfmKo36gmOUzIgx41-17" value="&lt;font style=&quot;font-size: 12px;&quot;&gt;«FuncUnit»&lt;/font&gt;&lt;br style=&quot;font-size: 14px;&quot;&gt;&lt;b&gt;调度图构建&lt;/b&gt;" style="html=1;dropTarget=0;fontSize=14;fillColor=#E6D0DE;strokeColor=#36393d;gradientColor=#FFFFFF;gradientDirection=east;" vertex="1" parent="1">
          <mxGeometry x="877" y="615.25" width="110" height="50" as="geometry" />
        </mxCell>
        <mxCell id="CTbkfmKo36gmOUzIgx41-18" value="" style="shape=module;jettyWidth=8;jettyHeight=4;fontSize=14;fillColor=#ffcccc;strokeColor=#36393d;gradientColor=#FFFFFF;gradientDirection=east;" vertex="1" parent="CTbkfmKo36gmOUzIgx41-17">
          <mxGeometry x="1" width="20" height="20" relative="1" as="geometry">
            <mxPoint x="-27" y="7" as="offset" />
          </mxGeometry>
        </mxCell>
        <mxCell id="CTbkfmKo36gmOUzIgx41-19" value="&lt;font style=&quot;font-size: 12px;&quot;&gt;«FuncUnit»&lt;/font&gt;&lt;br style=&quot;font-size: 14px;&quot;&gt;&lt;b&gt;并行调度&lt;/b&gt;" style="html=1;dropTarget=0;fontSize=14;fillColor=#E6D0DE;strokeColor=#36393d;gradientColor=#FFFFFF;gradientDirection=east;" vertex="1" parent="1">
          <mxGeometry x="1100" y="470" width="110" height="50" as="geometry" />
        </mxCell>
        <mxCell id="CTbkfmKo36gmOUzIgx41-20" value="" style="shape=module;jettyWidth=8;jettyHeight=4;fontSize=14;fillColor=#ffcccc;strokeColor=#36393d;gradientColor=#FFFFFF;gradientDirection=east;" vertex="1" parent="CTbkfmKo36gmOUzIgx41-19">
          <mxGeometry x="1" width="20" height="20" relative="1" as="geometry">
            <mxPoint x="-27" y="7" as="offset" />
          </mxGeometry>
        </mxCell>
        <mxCell id="CTbkfmKo36gmOUzIgx41-21" value="&lt;font style=&quot;font-size: 12px;&quot;&gt;«SubModule»&lt;/font&gt;&lt;br style=&quot;font-size: 14px;&quot;&gt;&lt;b&gt;分组分配&lt;/b&gt;" style="html=1;dropTarget=0;fontSize=14;fillColor=#ffcccc;strokeColor=#36393d;gradientColor=#FFFFFF;gradientDirection=east;verticalAlign=top;" vertex="1" parent="1">
          <mxGeometry x="880" y="914" width="260" height="112.5" as="geometry" />
        </mxCell>
        <mxCell id="CTbkfmKo36gmOUzIgx41-22" value="" style="shape=module;jettyWidth=8;jettyHeight=4;fontSize=14;fillColor=#ffcccc;strokeColor=#36393d;gradientColor=#FFFFFF;gradientDirection=east;" vertex="1" parent="CTbkfmKo36gmOUzIgx41-21">
          <mxGeometry x="1" width="20" height="20" relative="1" as="geometry">
            <mxPoint x="-27" y="7" as="offset" />
          </mxGeometry>
        </mxCell>
        <mxCell id="CTbkfmKo36gmOUzIgx41-23" value="&lt;font style=&quot;font-size: 12px;&quot;&gt;«SubModule»&lt;/font&gt;&lt;br style=&quot;font-size: 14px;&quot;&gt;&lt;b&gt;按层分配&lt;/b&gt;" style="html=1;dropTarget=0;fontSize=14;fillColor=#ffcccc;strokeColor=#36393d;gradientColor=#FFFFFF;gradientDirection=east;verticalAlign=top;" vertex="1" parent="1">
          <mxGeometry x="1189" y="914" width="171" height="112.5" as="geometry" />
        </mxCell>
        <mxCell id="CTbkfmKo36gmOUzIgx41-24" value="" style="shape=module;jettyWidth=8;jettyHeight=4;fontSize=14;fillColor=#ffcccc;strokeColor=#36393d;gradientColor=#FFFFFF;gradientDirection=east;" vertex="1" parent="CTbkfmKo36gmOUzIgx41-23">
          <mxGeometry x="1" width="20" height="20" relative="1" as="geometry">
            <mxPoint x="-27" y="7" as="offset" />
          </mxGeometry>
        </mxCell>
        <mxCell id="CTbkfmKo36gmOUzIgx41-25" value="&lt;font style=&quot;font-size: 12px;&quot;&gt;«SubModule»&lt;/font&gt;&lt;br style=&quot;font-size: 14px;&quot;&gt;&lt;b&gt;分配算法库&lt;/b&gt;" style="html=1;dropTarget=0;fontSize=14;fillColor=#ffcccc;strokeColor=#36393d;gradientColor=#FFFFFF;gradientDirection=east;" vertex="1" parent="1">
          <mxGeometry x="1048" y="665.5" width="110" height="70" as="geometry" />
        </mxCell>
        <mxCell id="CTbkfmKo36gmOUzIgx41-26" value="" style="shape=module;jettyWidth=8;jettyHeight=4;fontSize=14;fillColor=#ffcccc;strokeColor=#36393d;gradientColor=#FFFFFF;gradientDirection=east;" vertex="1" parent="CTbkfmKo36gmOUzIgx41-25">
          <mxGeometry x="1" width="20" height="20" relative="1" as="geometry">
            <mxPoint x="-27" y="7" as="offset" />
          </mxGeometry>
        </mxCell>
        <mxCell id="CTbkfmKo36gmOUzIgx41-27" value="&lt;font style=&quot;font-size: 12px;&quot;&gt;«SubModule»&lt;/font&gt;&lt;br style=&quot;font-size: 14px;&quot;&gt;&lt;b&gt;分配算法&lt;/b&gt;" style="html=1;dropTarget=0;fontSize=14;fillColor=#ffcccc;strokeColor=#36393d;gradientColor=#FFFFFF;gradientDirection=east;" vertex="1" parent="1">
          <mxGeometry x="1097" y="809" width="110" height="50" as="geometry" />
        </mxCell>
        <mxCell id="CTbkfmKo36gmOUzIgx41-28" value="" style="shape=module;jettyWidth=8;jettyHeight=4;fontSize=14;fillColor=#ffcccc;strokeColor=#36393d;gradientColor=#FFFFFF;gradientDirection=east;" vertex="1" parent="CTbkfmKo36gmOUzIgx41-27">
          <mxGeometry x="1" width="20" height="20" relative="1" as="geometry">
            <mxPoint x="-27" y="7" as="offset" />
          </mxGeometry>
        </mxCell>
        <mxCell id="CTbkfmKo36gmOUzIgx41-29" value="&amp;lt;&amp;lt;Realization&amp;gt;&amp;gt;" style="endArrow=block;dashed=1;endFill=0;endSize=12;html=1;rounded=0;fontSize=12;strokeColor=#0000FF;fontColor=#0000FF;" edge="1" parent="1" source="CTbkfmKo36gmOUzIgx41-21" target="CTbkfmKo36gmOUzIgx41-27">
          <mxGeometry width="160" relative="1" as="geometry">
            <mxPoint x="517.7247706422022" y="824" as="sourcePoint" />
            <mxPoint x="446.27522935779825" y="765" as="targetPoint" />
          </mxGeometry>
        </mxCell>
        <mxCell id="CTbkfmKo36gmOUzIgx41-30" value="&amp;lt;&amp;lt;Realization&amp;gt;&amp;gt;" style="endArrow=block;dashed=1;endFill=0;endSize=12;html=1;rounded=0;fontSize=12;strokeColor=#0000FF;fontColor=#0000FF;" edge="1" parent="1" source="CTbkfmKo36gmOUzIgx41-23" target="CTbkfmKo36gmOUzIgx41-27">
          <mxGeometry width="160" relative="1" as="geometry">
            <mxPoint x="382.0917431192661" y="824" as="sourcePoint" />
            <mxPoint x="405.9082568807339" y="765" as="targetPoint" />
          </mxGeometry>
        </mxCell>
        <mxCell id="CTbkfmKo36gmOUzIgx41-31" value="&lt;font style=&quot;font-size: 12px;&quot;&gt;«SubModule»&lt;/font&gt;&lt;br style=&quot;font-size: 14px;&quot;&gt;&lt;b&gt;MLS&lt;/b&gt;" style="html=1;dropTarget=0;fontSize=14;fillColor=#ffcccc;strokeColor=#36393d;gradientColor=#FFFFFF;gradientDirection=east;" vertex="1" parent="1">
          <mxGeometry x="1090" y="1086.5" width="110" height="50" as="geometry" />
        </mxCell>
        <mxCell id="CTbkfmKo36gmOUzIgx41-32" value="" style="shape=module;jettyWidth=8;jettyHeight=4;fontSize=14;fillColor=#ffcccc;strokeColor=#36393d;gradientColor=#FFFFFF;gradientDirection=east;" vertex="1" parent="CTbkfmKo36gmOUzIgx41-31">
          <mxGeometry x="1" width="20" height="20" relative="1" as="geometry">
            <mxPoint x="-27" y="7" as="offset" />
          </mxGeometry>
        </mxCell>
        <mxCell id="CTbkfmKo36gmOUzIgx41-33" value="&lt;font style=&quot;font-size: 12px;&quot;&gt;«SubModule»&lt;/font&gt;&lt;br style=&quot;font-size: 14px;&quot;&gt;&lt;b&gt;DSF&lt;/b&gt;" style="html=1;dropTarget=0;fontSize=14;fillColor=#ffcccc;strokeColor=#36393d;gradientColor=#FFFFFF;gradientDirection=east;verticalAlign=top;" vertex="1" parent="1">
          <mxGeometry x="1258.5" y="1076.5" width="251.5" height="180" as="geometry" />
        </mxCell>
        <mxCell id="CTbkfmKo36gmOUzIgx41-34" value="" style="shape=module;jettyWidth=8;jettyHeight=4;fontSize=14;fillColor=#ffcccc;strokeColor=#36393d;gradientColor=#FFFFFF;gradientDirection=east;" vertex="1" parent="CTbkfmKo36gmOUzIgx41-33">
          <mxGeometry x="1" width="20" height="20" relative="1" as="geometry">
            <mxPoint x="-27" y="7" as="offset" />
          </mxGeometry>
        </mxCell>
        <mxCell id="CTbkfmKo36gmOUzIgx41-35" value="&amp;lt;&amp;lt;Realization&amp;gt;&amp;gt;" style="endArrow=block;dashed=1;endFill=0;endSize=12;html=1;rounded=0;fontSize=12;strokeColor=#0000FF;fontColor=#0000FF;" edge="1" parent="1" source="CTbkfmKo36gmOUzIgx41-31" target="CTbkfmKo36gmOUzIgx41-23">
          <mxGeometry width="160" relative="1" as="geometry">
            <mxPoint x="1235.666666666666" y="924" as="sourcePoint" />
            <mxPoint x="1195.333333333333" y="869" as="targetPoint" />
          </mxGeometry>
        </mxCell>
        <mxCell id="CTbkfmKo36gmOUzIgx41-36" value="&amp;lt;&amp;lt;Realization&amp;gt;&amp;gt;" style="endArrow=block;dashed=1;endFill=0;endSize=12;html=1;rounded=0;fontSize=12;strokeColor=#0000FF;fontColor=#0000FF;" edge="1" parent="1" source="CTbkfmKo36gmOUzIgx41-33" target="CTbkfmKo36gmOUzIgx41-23">
          <mxGeometry width="160" relative="1" as="geometry">
            <mxPoint x="1195.7804878048782" y="1026.5" as="sourcePoint" />
            <mxPoint x="1235.2195121951218" y="974" as="targetPoint" />
          </mxGeometry>
        </mxCell>
        <mxCell id="CTbkfmKo36gmOUzIgx41-37" value="&lt;font style=&quot;font-size: 12px;&quot;&gt;«FuncUnit»&lt;/font&gt;&lt;br style=&quot;font-size: 14px;&quot;&gt;&lt;b&gt;首层分配&lt;/b&gt;" style="html=1;dropTarget=0;fontSize=14;fillColor=#E6D0DE;strokeColor=#36393d;gradientColor=#FFFFFF;gradientDirection=east;" vertex="1" parent="1">
          <mxGeometry x="1267" y="1126.5" width="110" height="50" as="geometry" />
        </mxCell>
        <mxCell id="CTbkfmKo36gmOUzIgx41-38" value="" style="shape=module;jettyWidth=8;jettyHeight=4;fontSize=14;fillColor=#ffcccc;strokeColor=#36393d;gradientColor=#FFFFFF;gradientDirection=east;" vertex="1" parent="CTbkfmKo36gmOUzIgx41-37">
          <mxGeometry x="1" width="20" height="20" relative="1" as="geometry">
            <mxPoint x="-27" y="7" as="offset" />
          </mxGeometry>
        </mxCell>
        <mxCell id="CTbkfmKo36gmOUzIgx41-39" value="&lt;font style=&quot;font-size: 12px;&quot;&gt;«SubModule»&lt;/font&gt;&lt;br style=&quot;font-size: 14px;&quot;&gt;&lt;b&gt;分组策略&lt;/b&gt;" style="html=1;dropTarget=0;fontSize=14;fillColor=#ffcccc;strokeColor=#36393d;gradientColor=#FFFFFF;gradientDirection=east;" vertex="1" parent="1">
          <mxGeometry x="890" y="966.5" width="110" height="50" as="geometry" />
        </mxCell>
        <mxCell id="CTbkfmKo36gmOUzIgx41-40" value="" style="shape=module;jettyWidth=8;jettyHeight=4;fontSize=14;fillColor=#ffcccc;strokeColor=#36393d;gradientColor=#FFFFFF;gradientDirection=east;" vertex="1" parent="CTbkfmKo36gmOUzIgx41-39">
          <mxGeometry x="1" width="20" height="20" relative="1" as="geometry">
            <mxPoint x="-27" y="7" as="offset" />
          </mxGeometry>
        </mxCell>
        <mxCell id="CTbkfmKo36gmOUzIgx41-41" value="&amp;lt;&amp;lt;Realization&amp;gt;&amp;gt;" style="endArrow=block;dashed=1;endFill=0;endSize=12;html=1;rounded=0;fontSize=12;strokeColor=#0000FF;fontColor=#0000FF;" edge="1" parent="1" source="CTbkfmKo36gmOUzIgx41-44" target="CTbkfmKo36gmOUzIgx41-39">
          <mxGeometry width="160" relative="1" as="geometry">
            <mxPoint x="898.6363636363631" y="1076.5" as="sourcePoint" />
            <mxPoint x="1245.455445544554" y="1006.5" as="targetPoint" />
          </mxGeometry>
        </mxCell>
        <mxCell id="CTbkfmKo36gmOUzIgx41-42" value="&lt;font style=&quot;font-size: 12px;&quot;&gt;«SubModule»&lt;/font&gt;&lt;br style=&quot;font-size: 14px;&quot;&gt;&lt;b&gt;分配器&lt;/b&gt;" style="html=1;dropTarget=0;fontSize=14;fillColor=#ffcccc;strokeColor=#36393d;gradientColor=#FFFFFF;gradientDirection=east;" vertex="1" parent="1">
          <mxGeometry x="1020" y="966.5" width="110" height="50" as="geometry" />
        </mxCell>
        <mxCell id="CTbkfmKo36gmOUzIgx41-43" value="" style="shape=module;jettyWidth=8;jettyHeight=4;fontSize=14;fillColor=#ffcccc;strokeColor=#36393d;gradientColor=#FFFFFF;gradientDirection=east;" vertex="1" parent="CTbkfmKo36gmOUzIgx41-42">
          <mxGeometry x="1" width="20" height="20" relative="1" as="geometry">
            <mxPoint x="-27" y="7" as="offset" />
          </mxGeometry>
        </mxCell>
        <mxCell id="CTbkfmKo36gmOUzIgx41-44" value="&lt;font style=&quot;font-size: 12px;&quot;&gt;«FuncUnit»&lt;/font&gt;&lt;br style=&quot;font-size: 14px;&quot;&gt;&lt;b&gt;并查集&lt;/b&gt;" style="html=1;dropTarget=0;fontSize=14;fillColor=#E6D0DE;strokeColor=#36393d;gradientColor=#FFFFFF;gradientDirection=east;" vertex="1" parent="1">
          <mxGeometry x="810" y="1086.5" width="110" height="50" as="geometry" />
        </mxCell>
        <mxCell id="CTbkfmKo36gmOUzIgx41-45" value="" style="shape=module;jettyWidth=8;jettyHeight=4;fontSize=14;fillColor=#ffcccc;strokeColor=#36393d;gradientColor=#FFFFFF;gradientDirection=east;" vertex="1" parent="CTbkfmKo36gmOUzIgx41-44">
          <mxGeometry x="1" width="20" height="20" relative="1" as="geometry">
            <mxPoint x="-27" y="7" as="offset" />
          </mxGeometry>
        </mxCell>
        <mxCell id="CTbkfmKo36gmOUzIgx41-46" value="&lt;font style=&quot;font-size: 12px;&quot;&gt;«FuncUnit»&lt;/font&gt;&lt;br style=&quot;font-size: 14px;&quot;&gt;&lt;b&gt;连通分量&lt;/b&gt;" style="html=1;dropTarget=0;fontSize=14;fillColor=#E6D0DE;strokeColor=#36393d;gradientColor=#FFFFFF;gradientDirection=east;" vertex="1" parent="1">
          <mxGeometry x="940" y="1086.5" width="110" height="50" as="geometry" />
        </mxCell>
        <mxCell id="CTbkfmKo36gmOUzIgx41-47" value="" style="shape=module;jettyWidth=8;jettyHeight=4;fontSize=14;fillColor=#ffcccc;strokeColor=#36393d;gradientColor=#FFFFFF;gradientDirection=east;" vertex="1" parent="CTbkfmKo36gmOUzIgx41-46">
          <mxGeometry x="1" width="20" height="20" relative="1" as="geometry">
            <mxPoint x="-27" y="7" as="offset" />
          </mxGeometry>
        </mxCell>
        <mxCell id="CTbkfmKo36gmOUzIgx41-48" value="&amp;lt;&amp;lt;Realization&amp;gt;&amp;gt;" style="endArrow=block;dashed=1;endFill=0;endSize=12;html=1;rounded=0;fontSize=12;strokeColor=#0000FF;fontColor=#0000FF;" edge="1" parent="1" source="CTbkfmKo36gmOUzIgx41-46" target="CTbkfmKo36gmOUzIgx41-39">
          <mxGeometry width="160" relative="1" as="geometry">
            <mxPoint x="891.6666666666665" y="1096.5" as="sourcePoint" />
            <mxPoint x="938.3333333333326" y="1026.5" as="targetPoint" />
          </mxGeometry>
        </mxCell>
        <mxCell id="CTbkfmKo36gmOUzIgx41-49" value="&lt;font style=&quot;font-size: 12px;&quot;&gt;«FuncUnit»&lt;/font&gt;&lt;br style=&quot;font-size: 14px;&quot;&gt;&lt;b&gt;分层分配框架&lt;/b&gt;" style="html=1;dropTarget=0;fontSize=14;fillColor=#E6D0DE;strokeColor=#36393d;gradientColor=#FFFFFF;gradientDirection=east;" vertex="1" parent="1">
          <mxGeometry x="1219.5" y="966.5" width="110" height="50" as="geometry" />
        </mxCell>
        <mxCell id="CTbkfmKo36gmOUzIgx41-50" value="" style="shape=module;jettyWidth=8;jettyHeight=4;fontSize=14;fillColor=#ffcccc;strokeColor=#36393d;gradientColor=#FFFFFF;gradientDirection=east;" vertex="1" parent="CTbkfmKo36gmOUzIgx41-49">
          <mxGeometry x="1" width="20" height="20" relative="1" as="geometry">
            <mxPoint x="-27" y="7" as="offset" />
          </mxGeometry>
        </mxCell>
        <mxCell id="CTbkfmKo36gmOUzIgx41-51" value="&lt;font style=&quot;font-size: 12px;&quot;&gt;«FuncUnit»&lt;/font&gt;&lt;br style=&quot;font-size: 14px;&quot;&gt;&lt;b&gt;垂直分配&lt;/b&gt;" style="html=1;dropTarget=0;fontSize=14;fillColor=#E6D0DE;strokeColor=#36393d;gradientColor=#FFFFFF;gradientDirection=east;" vertex="1" parent="1">
          <mxGeometry x="1390" y="1126.5" width="110" height="50" as="geometry" />
        </mxCell>
        <mxCell id="CTbkfmKo36gmOUzIgx41-52" value="" style="shape=module;jettyWidth=8;jettyHeight=4;fontSize=14;fillColor=#ffcccc;strokeColor=#36393d;gradientColor=#FFFFFF;gradientDirection=east;" vertex="1" parent="CTbkfmKo36gmOUzIgx41-51">
          <mxGeometry x="1" width="20" height="20" relative="1" as="geometry">
            <mxPoint x="-27" y="7" as="offset" />
          </mxGeometry>
        </mxCell>
        <mxCell id="CTbkfmKo36gmOUzIgx41-53" value="&lt;font style=&quot;font-size: 12px;&quot;&gt;«FuncUnit»&lt;/font&gt;&lt;br style=&quot;font-size: 14px;&quot;&gt;&lt;b&gt;邻近分配&lt;/b&gt;" style="html=1;dropTarget=0;fontSize=14;fillColor=#E6D0DE;strokeColor=#36393d;gradientColor=#FFFFFF;gradientDirection=east;" vertex="1" parent="1">
          <mxGeometry x="1389.25" y="1196.5" width="110" height="50" as="geometry" />
        </mxCell>
        <mxCell id="CTbkfmKo36gmOUzIgx41-54" value="" style="shape=module;jettyWidth=8;jettyHeight=4;fontSize=14;fillColor=#ffcccc;strokeColor=#36393d;gradientColor=#FFFFFF;gradientDirection=east;" vertex="1" parent="CTbkfmKo36gmOUzIgx41-53">
          <mxGeometry x="1" width="20" height="20" relative="1" as="geometry">
            <mxPoint x="-27" y="7" as="offset" />
          </mxGeometry>
        </mxCell>
        <mxCell id="CTbkfmKo36gmOUzIgx41-55" value="&lt;font style=&quot;font-size: 12px;&quot;&gt;«FuncUnit»&lt;/font&gt;&lt;br style=&quot;font-size: 14px;&quot;&gt;&lt;b&gt;关联分配&lt;/b&gt;" style="html=1;dropTarget=0;fontSize=14;fillColor=#E6D0DE;strokeColor=#36393d;gradientColor=#FFFFFF;gradientDirection=east;" vertex="1" parent="1">
          <mxGeometry x="1267" y="1196.5" width="110" height="50" as="geometry" />
        </mxCell>
        <mxCell id="CTbkfmKo36gmOUzIgx41-56" value="" style="shape=module;jettyWidth=8;jettyHeight=4;fontSize=14;fillColor=#ffcccc;strokeColor=#36393d;gradientColor=#FFFFFF;gradientDirection=east;" vertex="1" parent="CTbkfmKo36gmOUzIgx41-55">
          <mxGeometry x="1" width="20" height="20" relative="1" as="geometry">
            <mxPoint x="-27" y="7" as="offset" />
          </mxGeometry>
        </mxCell>
        <mxCell id="CTbkfmKo36gmOUzIgx41-57" style="edgeStyle=none;rounded=1;orthogonalLoop=1;jettySize=auto;html=1;dashed=1;strokeColor=#000000;fontSize=14;fontColor=#000000;endArrow=open;endFill=0;elbow=vertical;" edge="1" parent="1" source="CTbkfmKo36gmOUzIgx41-3" target="CTbkfmKo36gmOUzIgx41-5">
          <mxGeometry relative="1" as="geometry">
            <mxPoint x="1109.2285714285708" y="562.5000000000002" as="targetPoint" />
          </mxGeometry>
        </mxCell>
        <mxCell id="CTbkfmKo36gmOUzIgx41-58" value="断点续调" style="text;html=1;strokeColor=none;fillColor=none;align=center;verticalAlign=middle;whiteSpace=wrap;rounded=0;glass=0;fillStyle=auto;strokeWidth=1;fontSize=14;fontColor=#000000;opacity=30;" vertex="1" parent="1">
          <mxGeometry x="1226" y="605" width="60" height="20" as="geometry" />
        </mxCell>
        <mxCell id="CTbkfmKo36gmOUzIgx41-59" style="edgeStyle=none;rounded=1;orthogonalLoop=1;jettySize=auto;html=1;dashed=1;strokeColor=#000000;fontSize=14;fontColor=#000000;endArrow=open;endFill=0;elbow=vertical;" edge="1" parent="1" source="CTbkfmKo36gmOUzIgx41-3" target="CTbkfmKo36gmOUzIgx41-9">
          <mxGeometry relative="1" as="geometry" />
        </mxCell>
        <mxCell id="CTbkfmKo36gmOUzIgx41-60" value="&lt;font style=&quot;font-size: 12px;&quot;&gt;«FuncUnit»&lt;/font&gt;&lt;br style=&quot;font-size: 14px;&quot;&gt;&lt;b&gt;串行调度&lt;/b&gt;" style="html=1;dropTarget=0;fontSize=14;fillColor=#E6D0DE;strokeColor=#36393d;gradientColor=#FFFFFF;gradientDirection=east;" vertex="1" parent="1">
          <mxGeometry x="960" y="470" width="110" height="50" as="geometry" />
        </mxCell>
        <mxCell id="CTbkfmKo36gmOUzIgx41-61" value="" style="shape=module;jettyWidth=8;jettyHeight=4;fontSize=14;fillColor=#ffcccc;strokeColor=#36393d;gradientColor=#FFFFFF;gradientDirection=east;" vertex="1" parent="CTbkfmKo36gmOUzIgx41-60">
          <mxGeometry x="1" width="20" height="20" relative="1" as="geometry">
            <mxPoint x="-27" y="7" as="offset" />
          </mxGeometry>
        </mxCell>
        <mxCell id="CTbkfmKo36gmOUzIgx41-62" style="edgeStyle=none;rounded=1;orthogonalLoop=1;jettySize=auto;html=1;dashed=1;strokeColor=#000000;fontSize=14;fontColor=#000000;endArrow=open;endFill=0;elbow=vertical;" edge="1" parent="1" source="CTbkfmKo36gmOUzIgx41-7" target="CTbkfmKo36gmOUzIgx41-9">
          <mxGeometry relative="1" as="geometry" />
        </mxCell>
      </root>
    </mxGraphModel>
  </diagram>
</mxfile>
